<svg width="33" height="32" viewBox="0 0 33 32" fill="none" xmlns="http://www.w3.org/2000/svg">
<g clip-path="url(#clip0_5307_7091)">
<path d="M16.5674 24.864C16.51 24.864 16.4526 24.864 16.3948 24.8638C15.036 24.8671 13.7806 24.8325 12.5596 24.7582C11.4402 24.6901 10.4184 24.3033 9.60457 23.6396C8.81925 22.9993 8.28297 22.1334 8.01066 21.0664C7.77366 20.1375 7.7611 19.2256 7.74907 18.3436C7.74034 17.7108 7.73134 16.9609 7.72949 16.1983C7.73134 15.4326 7.74034 14.6827 7.74907 14.0499C7.7611 13.168 7.77366 12.2561 8.01066 11.3271C8.28297 10.26 8.81925 9.39419 9.60457 8.75382C10.4184 8.09018 11.4402 7.70334 12.5597 7.63523C13.7807 7.56104 15.0364 7.52639 16.3981 7.5297C17.7573 7.52679 19.0123 7.56104 20.2333 7.63523C21.3527 7.70334 22.3745 8.09018 23.1883 8.75382C23.9738 9.39419 24.5099 10.26 24.7822 11.3271C25.0192 12.256 25.0318 13.168 25.0438 14.0499C25.0526 14.6827 25.0617 15.4326 25.0634 16.1951V16.1983C25.0617 16.9609 25.0526 17.7108 25.0438 18.3436C25.0318 19.2254 25.0194 20.1373 24.7822 21.0664C24.5099 22.1334 23.9738 22.9993 23.1883 23.6396C22.3745 24.3033 21.3527 24.6901 20.2333 24.7582C19.0641 24.8294 17.8629 24.864 16.5674 24.864ZM16.3948 23.5095C17.7315 23.5127 18.9588 23.4789 20.151 23.4065C20.9974 23.355 21.7313 23.0803 22.3325 22.5901C22.8883 22.1368 23.271 21.5116 23.47 20.7315C23.6674 19.9582 23.6787 19.128 23.6897 18.3251C23.6983 17.6965 23.7073 16.9519 23.7092 16.1967C23.7073 15.4414 23.6983 14.697 23.6897 14.0684C23.6787 13.2655 23.6674 12.4352 23.47 11.6618C23.271 10.8818 22.8883 10.2565 22.3325 9.80325C21.7313 9.31312 20.9974 9.03843 20.151 8.98699C18.9588 8.91438 17.7315 8.88092 16.398 8.88383C15.0616 8.88065 13.8341 8.91438 12.6419 8.98699C11.7955 9.03843 11.0616 9.31312 10.4604 9.80325C9.90465 10.2565 9.52191 10.8818 9.32287 11.6618C9.12555 12.4352 9.11417 13.2654 9.1032 14.0684C9.0946 14.6975 9.08561 15.4425 9.08376 16.1983C9.08561 16.9508 9.0946 17.6959 9.1032 18.3251C9.11417 19.128 9.12555 19.9582 9.32287 20.7315C9.52191 21.5116 9.90465 22.1368 10.4604 22.5901C11.0616 23.0802 11.7955 23.3549 12.6419 23.4063C13.8341 23.4789 15.0618 23.5128 16.3948 23.5095ZM16.3625 20.4288C14.0291 20.4288 12.1305 18.5303 12.1305 16.1967C12.1305 13.8631 14.0291 11.9646 16.3625 11.9646C18.6961 11.9646 20.5946 13.8631 20.5946 16.1967C20.5946 18.5303 18.6961 20.4288 16.3625 20.4288ZM16.3625 13.3189C14.7758 13.3189 13.4847 14.61 13.4847 16.1967C13.4847 17.7835 14.7758 19.0745 16.3625 19.0745C17.9494 19.0745 19.2403 17.7835 19.2403 16.1967C19.2403 14.61 17.9494 13.3189 16.3625 13.3189ZM21.0686 10.6104C20.5077 10.6104 20.0529 11.0651 20.0529 11.6261C20.0529 12.1871 20.5077 12.6418 21.0686 12.6418C21.6296 12.6418 22.0843 12.1871 22.0843 11.6261C22.0843 11.0651 21.6296 10.6104 21.0686 10.6104Z" fill="#FF7A1B"/>
</g>
<circle cx="16.2002" cy="16" r="15" stroke="#FF7A1B" stroke-width="2"/>
<defs>
<clipPath id="clip0_5307_7091">
<rect width="17.3346" height="17.3346" fill="white" transform="translate(7.72949 7.52942)"/>
</clipPath>
</defs>
</svg>
