<svg width="32" height="32" viewBox="0 0 32 32" fill="none" xmlns="http://www.w3.org/2000/svg">
<g clip-path="url(#clip0_5307_7095)">
<path d="M24.9904 15.8062C24.9904 20.6236 21.0547 24.5289 16.1987 24.5289C14.6577 24.5289 13.2102 24.1347 11.9501 23.4445L7.08301 24.9902L8.66955 20.3088C7.86956 18.995 7.40884 17.4523 7.40884 15.8056C7.40942 10.9881 11.3439 7.08282 16.1999 7.08282C21.0553 7.08399 24.9904 10.9887 24.9904 15.8062ZM16.1982 8.47375C12.1229 8.47375 8.80794 11.7636 8.80794 15.8079C8.80794 17.4125 9.33114 18.8981 10.2158 20.1068L9.29318 22.8297L12.1323 21.9275C13.3001 22.6936 14.6975 23.1397 16.1982 23.1397C20.2734 23.1397 23.5895 19.8505 23.5895 15.8062C23.5907 11.7636 20.274 8.47375 16.1982 8.47375ZM20.6384 17.8155C20.5835 17.7273 20.4398 17.6736 20.2249 17.5661C20.0106 17.4587 18.9496 16.9419 18.7528 16.8718C18.5543 16.8 18.4107 16.7638 18.267 16.9781C18.1251 17.1924 17.7117 17.6736 17.585 17.8172C17.4594 17.9603 17.3339 17.9784 17.1184 17.8727C16.903 17.7641 16.2081 17.5398 15.3847 16.8117C14.7442 16.2441 14.3115 15.5451 14.1865 15.3308C14.0598 15.1171 14.1737 15.0015 14.2805 14.8952C14.3769 14.7989 14.496 14.6453 14.604 14.5198C14.7121 14.3954 14.7477 14.3072 14.8195 14.1641C14.8902 14.0211 14.8545 13.8967 14.8014 13.7887C14.7477 13.6812 14.3173 12.6302 14.1369 12.2021C13.9576 11.7747 13.7783 11.8454 13.6522 11.8454C13.5267 11.8454 13.383 11.8278 13.2394 11.8278C13.0957 11.8278 12.8622 11.8798 12.6654 12.0941C12.4686 12.3084 11.9115 12.8252 11.9115 13.8774C11.9115 14.9308 12.6829 15.9463 12.7909 16.0888C12.8995 16.2307 14.2823 18.4607 16.4726 19.3167C18.6641 20.1722 18.6641 19.8867 19.0588 19.8505C19.4547 19.8142 20.3341 19.3337 20.5128 18.835C20.6927 18.334 20.6927 17.9048 20.6384 17.8155Z" fill="#BBBBBB"/>
</g>
<circle cx="16" cy="16" r="15" stroke="#BBBBBB" stroke-width="2"/>
<defs>
<clipPath id="clip0_5307_7095">
<rect width="18.0883" height="18.0883" fill="white" transform="translate(6.90234 6.90195)"/>
</clipPath>
</defs>
</svg>
