<svg width="33" height="32" viewBox="0 0 33 32" fill="none" xmlns="http://www.w3.org/2000/svg">
<g clip-path="url(#clip0_5307_7087)">
<path d="M16.3468 22.4372C16.3453 22.4372 16.3436 22.4372 16.3419 22.4372C15.7907 22.4336 10.9173 22.3909 9.53657 22.033C8.57163 21.7844 7.8099 21.0551 7.54981 20.13C7.18853 18.83 7.21153 16.327 7.21404 16.1271C7.21167 15.9282 7.18839 13.4045 7.5487 12.0938C7.54912 12.0926 7.54939 12.0912 7.54981 12.09C7.80697 11.1756 8.58584 10.4237 9.5342 10.1744C9.53657 10.1737 9.53908 10.1732 9.54145 10.1725C10.9066 9.8286 15.7895 9.78652 16.3419 9.78291H16.3518C16.9045 9.78652 21.7908 9.82914 23.1588 10.1876C24.1213 10.4355 24.8824 11.1639 25.1432 12.0878C25.518 13.3994 25.4833 15.9286 25.4796 16.1421C25.4822 16.3524 25.5041 18.8329 25.1449 20.1395C25.1446 20.1409 25.1442 20.1421 25.1439 20.1433C24.8837 21.0683 24.1221 21.7976 23.1561 22.0465C23.1548 22.0469 23.1534 22.0472 23.1522 22.0476C21.7872 22.3913 16.9041 22.4334 16.3518 22.4372C16.3501 22.4372 16.3485 22.4372 16.3468 22.4372ZM8.92831 12.4446C8.61107 13.6016 8.64104 16.0931 8.64132 16.1182V16.1362C8.63184 16.8272 8.66515 18.8282 8.92845 19.776C9.05612 20.2298 9.43176 20.5894 9.90816 20.7121C10.9269 20.9763 14.8961 21.0594 16.3468 21.0691C17.8013 21.0594 21.7763 20.9785 22.7875 20.725C23.2624 20.6018 23.6368 20.2435 23.7653 19.7891C24.0289 18.8274 24.0619 16.8361 24.0523 16.1496C24.0523 16.1424 24.0523 16.1352 24.0524 16.1279C24.0655 15.4287 24.0397 13.4043 23.7666 12.4489C23.7663 12.4479 23.766 12.447 23.7659 12.4461C23.6376 11.9902 23.2618 11.6307 22.7854 11.5079C21.7766 11.2436 17.801 11.1607 16.3468 11.151C14.8933 11.1607 10.9222 11.2414 9.90789 11.4947C9.44054 11.619 9.0564 11.9913 8.92831 12.4446ZM24.4548 19.9653H24.4552H24.4548ZM14.5277 18.8802V13.3397L19.5232 16.11L14.5277 18.8802Z" fill="#BBBBBB"/>
</g>
<circle cx="16.5996" cy="16" r="15" stroke="#BBBBBB" stroke-width="2"/>
<defs>
<clipPath id="clip0_5307_7087">
<rect width="18.0883" height="17.3346" fill="white" transform="translate(7.39355 7.52942)"/>
</clipPath>
</defs>
</svg>
